<svg width="489" height="190" viewBox="0 0 489 190" fill="none" xmlns="http://www.w3.org/2000/svg">
<path d="M381.879 159.008C385.389 158.167 389.052 158.2 391.548 156.505C396.207 153.331 400.197 149.158 404.465 145.405C399.787 142.346 395.281 138.951 390.354 136.37C388.243 135.268 385.257 135.848 381.879 135.611C381.879 143.705 381.879 150.987 381.879 159.008ZM382.688 109.708C401.491 104.653 418.594 78.603 418.096 55.3151C417.661 34.9389 403.843 21.6936 382.688 22.6671C382.688 51.6567 382.688 80.7304 382.688 109.708ZM413.803 117.645C419.808 121.188 425.844 123.819 430.747 127.834C441.337 136.51 443.203 149.897 433.191 159.078C424.96 166.614 414.313 172.866 403.657 176.044C391.648 179.633 378.444 179.658 365.715 180.27C355.329 180.766 351.371 176.326 351.093 165.576C350.62 147.393 350.184 129.198 350.077 111.007C349.91 83.2515 350.035 55.5069 350.035 27.7514C349.032 28.1395 348.032 28.523 347.029 28.9066C344.154 24.6308 339.383 20.5837 338.823 16.0294C337.902 8.51064 344.535 5.74548 350.968 4.22975C373.144 -0.99411 395.274 -1.54396 416.885 6.48456C445.282 17.0349 457.656 43.5154 448.144 72.261C443.345 86.7634 435.016 98.9263 423.617 109.026C420.324 111.943 417.014 114.83 413.803 117.645Z" fill="white"/>
<path d="M24.1438 82.4627C24.1438 107.54 24.1737 132.605 24.1064 157.677C24.099 160.646 23.5316 163.608 23.3026 166.577C22.444 177.612 15.6271 182.296 5.4479 177.714C2.69031 176.472 0.0447138 171.42 0.0646245 168.137C0.226397 144.865 1.58031 121.61 1.61515 98.3337C1.65497 71.7831 1.05268 45.2229 0.0322698 18.685C-0.298741 10.1111 1.91381 5.00642 10.6246 3.15936C23.0313 0.533737 28.6709 2.7637 32.6903 11.6715C48.3822 46.4322 64.2211 81.119 80.0621 115.818C81.2421 118.396 82.8674 120.781 85.3905 125.183C86.1945 108.827 87.372 94.6906 87.4688 80.5437C87.6185 59.0608 86.9139 37.5773 86.7922 16.0913C86.7425 7.24849 90.0396 4.85924 99.8458 4.42662C108.203 4.06282 111.01 7.98309 110.699 15.788C108.776 64.0808 107.168 112.383 105.01 160.659C104.363 175.109 93.1336 182.505 79.0542 178.242C76.1973 177.376 73.5264 173.872 72.0011 170.942C57.9915 143.971 44.2583 116.868 30.4404 89.7974C29.0816 87.1266 27.7401 84.4512 26.3887 81.781C25.6421 82.0046 24.8904 82.234 24.1438 82.4627Z" fill="white"/>
<path d="M239.174 28.6249C240.388 72.3833 241.352 115.267 242.907 158.13C243.357 170.596 240.951 174.317 228.42 175.019C227.526 175.064 226.63 175.044 225.734 175.056C207.666 175.313 205.918 174.063 206.035 156.191C206.297 116.275 207.051 76.3577 207.601 36.4496C207.628 34.3967 207.603 32.3534 207.603 28.797C197.148 28.797 187.141 28.7721 177.128 28.8091C169.801 28.8339 166.302 25.5616 166.289 17.916C166.277 10.7081 168.927 7.89326 176.379 7.9678C205.61 8.28128 234.841 8.09715 264.072 8.09715C266.461 8.09715 269.092 8.70688 271.182 7.91046C276.732 5.78308 280.577 6.33801 281.095 13.0598C281.593 19.5458 281.668 26.2605 272.663 26.9053C262.616 27.6119 252.541 27.963 239.174 28.6249Z" fill="white"/>
<path d="M148.653 173.344C148.634 183.767 143.27 189.603 133.908 189.392C124.846 189.195 119.709 183.028 119.828 172.508C119.945 162.48 125.06 156.885 134.05 156.963C143.368 157.032 148.671 162.991 148.653 173.344Z" fill="white"/>
<path d="M290.005 173.043C290.005 162.431 295.132 156.779 304.594 156.963C313.711 157.134 318.943 163.289 318.831 173.707C318.718 183.615 313.517 189.362 304.607 189.392C295.411 189.437 289.998 183.379 290.005 173.043Z" fill="white"/>
<path d="M460.177 173.05C460.177 162.806 465.018 157.11 473.883 156.955C483.216 156.791 488.898 162.749 489.002 172.809C489.115 183.384 483.975 189.387 474.799 189.392C465.508 189.399 460.182 183.456 460.177 173.05Z" fill="white"/>
</svg>
