<svg width="487" height="729" viewBox="0 0 487 729" fill="none" xmlns="http://www.w3.org/2000/svg">
<path d="M87.429 125.84C96.6554 122.557 105.879 119.274 116.287 115.57C106.021 111.19 96.8988 106.268 87.1729 103.431C76.9514 100.454 73.7007 92.6254 70.2666 84.3504C69.8136 83.2603 69.6715 82.0363 69.4128 80.8696C63.4671 54.0109 68.1832 47.4636 95.1817 47.3233C114.333 47.2213 131.593 41.2478 147.611 31.7487C167.046 20.216 187.621 15.747 210.005 17.4173C220.381 18.1951 231.133 18.8517 241.23 16.9711C251.441 15.0649 262.011 11.4692 270.73 5.93557C288.903 -5.60353 307.613 -0.139973 312.186 20.7707C325.065 79.5946 348.522 134.759 371.344 189.943C381.312 214.041 398.007 235.455 412.46 257.558C427.592 280.706 444.585 302.72 452.113 330.012C458.577 353.447 461.533 377.716 453.997 400.714C447.452 420.679 435.705 438.664 415.067 448.61C407.738 452.141 400.732 457.159 394.901 462.86C376.467 480.875 382.494 514.185 406.942 522.211C444.465 534.531 457.004 562.397 458.863 598.096C459.841 616.885 459.933 635.724 460.04 654.549C460.12 668.166 466.648 678.759 474.032 689.478C478.823 696.433 482.594 704.362 485.364 712.364C487.965 719.879 483.559 725.911 475.638 727.219C470.083 728.142 464.364 728.673 458.746 728.501C434.585 727.786 410.431 726.675 386.277 725.841C373.579 725.408 368.607 721.979 364.458 710.209C357.066 689.241 347.584 669.371 331.767 653.388C316.168 637.627 297.502 627.345 274.853 627.046C252.877 626.754 230.65 625.651 208.955 628.341C176.165 632.412 153.37 652.118 139.343 681.77C134.783 691.41 131.354 701.591 127.559 711.574C123.651 721.864 118.355 726.111 107.404 725.689C77.8873 724.542 48.3724 723.157 18.88 721.513C10.4778 721.04 2.79492 717.802 0.447984 708.718C-1.68492 700.443 3.9796 691.918 13.5839 688.031C23.5789 683.982 28.0115 676.14 29.3878 666.106C29.8681 662.575 29.8606 658.934 29.6815 655.363C27.7203 616.113 39.0941 580.004 55.7641 545.239C62.4217 531.355 69.3956 529.533 84.0841 534.949C113.362 545.749 142.845 555.997 172.195 566.606C180.003 569.432 187.648 572.72 195.349 575.852C210.008 581.809 216.621 578.38 221.603 563.493C232.843 529.918 244.351 496.426 256.088 463.022C260.879 449.402 261.252 437.506 250.364 425.901C237.715 412.416 236.63 379.708 247.415 365.192C249.256 362.709 253.183 361.128 256.412 360.513C259.792 359.868 263.579 360.483 267.034 361.25C285.19 365.277 285.289 365.361 286.322 347.008C288.263 312.385 289.806 277.742 291.971 243.137C293.962 211.325 301.981 180.82 313.654 151.271C319.59 136.238 317.574 129.92 302.325 124.361C281.113 116.634 259.634 109.609 238.116 102.775C227.633 99.4469 222.927 102.176 220.563 112.586C211.175 153.891 190.727 189.42 164.36 221.921C129.214 265.247 108.514 314.941 99.2288 369.707C97.3371 380.868 95.8341 392.15 93.0416 403.095C91.1028 410.693 92.9192 416.722 97.5136 422.155C102.118 427.604 107.387 432.488 112.28 437.695C128.024 454.445 125.319 472.225 106.016 484.75C73.9524 505.556 33.0139 486.901 21.3639 457.675C15.2165 442.255 12.8945 424.828 11.5182 408.085C8.96719 377.103 9.28575 346.071 15.01 315.196C18.9373 294.037 30.0921 277.78 46.0031 264.558C70.8789 243.89 96.0577 223.566 121.615 203.751C130.249 197.057 140.189 191.906 149.963 186.895C157.068 183.249 162.141 178.193 161.312 170.403C160.424 162.007 155.286 155.37 146.698 152.941C132.964 149.059 118.865 146.343 105.373 141.791C98.5693 139.496 92.7574 134.249 86.4982 130.341C86.8098 128.837 87.1207 127.338 87.429 125.84Z" fill="white"/>
</svg>
